<?xml version="1.0" encoding="utf-8"?>
<!-- Generator: Adobe Illustrator 21.0.0, SVG Export Plug-In . SVG Version: 6.00 Build 0)  -->
<svg version="1.1"
	 id="logo" inkscape:version="0.92.2 (5c3e80d, 2017-08-06)" sodipodi:docname="Hyatt Logo.svg" xmlns:cc="http://creativecommons.org/ns#" xmlns:dc="http://purl.org/dc/elements/1.1/" xmlns:inkscape="http://www.inkscape.org/namespaces/inkscape" xmlns:rdf="http://www.w3.org/1999/02/22-rdf-syntax-ns#" xmlns:sodipodi="http://sodipodi.sourceforge.net/DTD/sodipodi-0.dtd" xmlns:svg="http://www.w3.org/2000/svg"
	 xmlns="http://www.w3.org/2000/svg" xmlns:xlink="http://www.w3.org/1999/xlink" x="0px" y="0px" viewBox="0 0 400 300"
	 style="enable-background:new 0 0 400 300;" xml:space="preserve">
<style type="text/css">
	.st0{fill:#4B77A9;}
</style>
<path id="logo_1_" class="st0" d="M265.6,111.8h21.5v-7h-51.8v7h21.5V163c-13.2-3.2-26.9-5.3-41.5-6.5l-21.8-53h-4.3l-21.6,52.6
	c-14.9,0.9-28.9,2.8-42.2,5.7l0-16.7l26.3-40.3h-9.7l-20.9,33.5L100,104.8h-9.8l26.3,40.3v18.7c-23.3,5.9-44.9,15-66.8,27.2v1.9
	c32.7-14.2,70-24.6,113.8-27.5l-12.7,31h9.7l12.5-31.5c5-0.2,10.1-0.3,15.2-0.3c7.3,0,14.4,0.2,21.3,0.6l12.4,31.2h9.7L219.1,166
	c41.3,3.4,76.4,13.4,107.6,27v-1.9c-20-11.3-39.9-19.9-61.1-25.8V111.8z M188.2,155.5c-3.9,0-7.7,0.1-11.5,0.2l14.5-36.4l14.6,36.6
	C200.1,155.6,194.2,155.5,188.2,155.5z M55.2,140.4H16.9v34.7H8v-70.2h8.9v28.6h38.3v-28.6h8.9v70.2l-8.9,0V140.4z M309.6,104.8
	h51.8v7H340v63.2h-8.9v-63.2h-21.5V104.8z M389.4,107.4c-1.7-1.7-3.8-2.6-6.2-2.6c-2.4,0-4.5,0.9-6.2,2.6c-1.7,1.7-2.6,3.8-2.6,6.2
	c0,2.4,0.8,4.5,2.5,6.2c1.7,1.7,3.8,2.6,6.2,2.6c2.4,0,4.5-0.9,6.2-2.6c1.7-1.7,2.6-3.8,2.6-6.2C392,111.2,391.1,109.1,389.4,107.4z
	 M388.5,119c-1.5,1.5-3.3,2.2-5.4,2.2c-2.1,0-3.9-0.7-5.3-2.2c-1.5-1.5-2.2-3.3-2.2-5.4c0-2.1,0.7-3.9,2.2-5.4
	c1.5-1.5,3.3-2.2,5.3-2.2c2.1,0,3.9,0.7,5.4,2.2c1.5,1.5,2.2,3.3,2.2,5.4C390.7,115.7,390,117.5,388.5,119z M387,117.8
	c0-0.2,0-0.5,0-0.7v-0.7c0-0.5-0.2-1-0.5-1.5c-0.4-0.5-0.9-0.8-1.7-0.9c0.6-0.1,1.1-0.2,1.4-0.5c0.6-0.4,0.9-1.1,0.9-1.9
	c0-1.2-0.5-2-1.5-2.5c-0.6-0.2-1.4-0.3-2.6-0.3h-3.4v9.7h1.7v-3.8h1.3c0.9,0,1.5,0.1,1.9,0.3c0.6,0.4,0.9,1.1,0.9,2.2v0.8l0,0.3
	c0,0,0,0.1,0,0.1c0,0,0,0.1,0,0.1h1.6l-0.1-0.1C387.1,118.2,387,118,387,117.8z M384.5,113.2c-0.4,0.1-0.9,0.2-1.6,0.2h-1.5v-3.5
	h1.4c0.9,0,1.6,0.1,2.1,0.4c0.4,0.2,0.7,0.7,0.7,1.4C385.5,112.4,385.2,112.9,384.5,113.2z"/>
</svg>
